<?xml version="1.0" standalone="no"?>
<!DOCTYPE svg PUBLIC "-//W3C//DTD SVG 20010904//EN"
 "http://www.w3.org/TR/2001/REC-SVG-20010904/DTD/svg10.dtd">
<svg version="1.0" xmlns="http://www.w3.org/2000/svg"
 width="375.000000pt" height="151.000000pt" viewBox="0 0 375.000000 151.000000"
 preserveAspectRatio="xMidYMid meet">

<g transform="translate(0.000000,151.000000) scale(0.100000,-0.100000)"
fill="#000000" stroke="none">
<path d="M666 1225 c-117 -30 -213 -92 -245 -159 -25 -50 -26 -103 -6 -219 10
-55 12 -94 6 -109 -5 -13 -41 -64 -80 -113 -91 -116 -93 -153 -13 -233 81 -81
185 -107 299 -74 39 11 81 18 95 15 13 -2 69 -43 123 -90 55 -47 115 -92 134
-100 31 -13 36 -13 60 4 14 11 37 41 51 68 27 55 30 104 15 276 -6 78 -4 110
9 166 25 99 3 141 -117 230 -82 61 -94 108 -50 198 32 66 26 98 -25 128 -44
26 -176 32 -256 12z m218 -8 c50 -16 81 -55 72 -93 -6 -22 -9 -25 -17 -13 -6
10 -9 7 -9 -13 0 -16 -4 -28 -9 -28 -5 0 -12 -12 -15 -26 -6 -24 -7 -25 -24
-7 -9 10 -14 14 -9 9 11 -15 9 -58 -3 -51 -6 4 -10 3 -9 -2 1 -4 1 -17 0 -27
-1 -19 -2 -18 -24 2 -13 12 -30 22 -38 22 -8 0 -3 -6 11 -13 25 -12 41 -57 21
-57 -14 0 -14 -37 -1 -45 6 -3 10 2 10 12 1 14 4 13 15 -7 7 -14 39 -47 70
-74 31 -27 60 -58 65 -70 7 -17 9 -17 9 -4 1 10 -18 35 -41 55 -95 86 -98 90
-98 125 l1 33 13 -31 c7 -17 40 -53 71 -80 32 -27 66 -62 77 -79 10 -16 18
-23 18 -15 0 8 -36 49 -80 91 -70 67 -80 80 -79 110 l1 34 9 -32 c6 -22 31
-50 72 -84 34 -28 73 -63 85 -77 21 -23 22 -24 12 -4 -6 12 -40 45 -76 73 -73
58 -84 74 -83 121 l1 33 8 -29 c11 -34 46 -73 113 -124 27 -20 60 -56 73 -79
25 -41 25 -42 9 -108 -18 -79 -19 -157 -4 -260 10 -65 9 -85 -6 -141 -21 -79
-63 -129 -97 -119 -30 9 -76 44 -165 122 -96 85 -112 90 -203 62 -51 -15 -85
-20 -117 -15 -118 16 -233 109 -233 189 0 14 30 62 74 121 41 53 78 105 81
115 3 10 -1 58 -10 106 -27 158 -17 215 51 275 99 87 290 132 408 97z"/>
<path d="M786 1171 c63 -4 98 -12 118 -25 16 -10 25 -13 21 -6 -15 25 -75 40
-152 38 l-78 -1 91 -6z"/>
<path d="M596 1145 c-72 -29 -122 -69 -148 -115 -20 -36 -20 -93 -2 -248 l7
-52 -72 -93 c-39 -52 -71 -104 -71 -116 0 -82 133 -181 244 -181 16 0 56 7 87
16 32 9 69 14 83 10 13 -3 48 -28 78 -54 84 -77 148 -122 172 -122 12 0 32 10
44 23 24 25 52 88 52 114 -1 10 -9 -6 -19 -35 -22 -62 -46 -92 -77 -92 -22 0
-130 77 -120 87 2 3 20 -7 39 -21 19 -14 43 -26 55 -26 20 0 72 52 72 72 0 6
-10 -4 -23 -23 -35 -53 -61 -50 -141 18 -38 32 -81 67 -95 77 -24 18 -24 17 4
-13 l30 -32 -42 23 c-41 22 -42 22 -106 5 -75 -20 -107 -21 -158 -7 -111 31
-207 156 -154 200 13 11 15 8 15 -16 0 -68 83 -145 177 -164 30 -7 57 -10 59
-7 3 2 -22 10 -55 16 -93 18 -171 87 -171 151 0 11 30 59 66 106 61 81 65 89
59 123 -4 20 -11 59 -15 86 -6 37 -8 42 -9 18 0 -18 4 -54 10 -82 8 -36 7 -55
-1 -71 -15 -27 -23 -20 -12 10 5 13 3 49 -4 89 -20 100 -18 167 7 210 26 46
99 97 175 121 33 10 50 19 39 19 -11 0 -47 -10 -79 -24z m-191 -515 c-27 -33
-50 -58 -52 -56 -3 2 17 32 43 65 26 34 49 59 52 57 2 -3 -17 -32 -43 -66z
m425 -315 c13 -14 19 -25 13 -25 -5 0 -20 11 -33 25 -13 14 -19 25 -13 25 5 0
20 -11 33 -25z"/>
<path d="M703 1123 c9 -2 23 -2 30 0 6 3 -1 5 -18 5 -16 0 -22 -2 -12 -5z"/>
<path d="M834 1120 c22 -6 49 -18 60 -27 21 -17 21 -17 0 5 -12 14 -36 24 -60
27 l-39 5 39 -10z"/>
<path d="M658 1113 c7 -3 16 -2 19 1 4 3 -2 6 -13 5 -11 0 -14 -3 -6 -6z"/>
<path d="M547 1070 c-46 -29 -87 -81 -87 -110 0 -8 10 6 23 30 16 33 37 54 77
78 30 17 50 32 44 32 -6 0 -31 -13 -57 -30z"/>
<path d="M700 1074 c35 -7 149 -9 137 -2 -6 4 -43 7 -82 7 -38 -1 -63 -3 -55
-5z"/>
<path d="M605 1045 c-54 -26 -72 -39 -95 -70 -8 -11 2 -5 21 13 20 18 63 44
95 57 32 14 52 25 44 25 -8 0 -37 -11 -65 -25z"/>
<path d="M703 1033 c9 -2 25 -2 35 0 9 3 1 5 -18 5 -19 0 -27 -2 -17 -5z"/>
<path d="M783 1033 c9 -2 23 -2 30 0 6 3 -1 5 -18 5 -16 0 -22 -2 -12 -5z"/>
<path d="M658 1023 c7 -3 16 -2 19 1 4 3 -2 6 -13 5 -11 0 -14 -3 -6 -6z"/>
<path d="M577 990 c-26 -16 -47 -32 -47 -36 0 -4 6 -2 13 4 6 6 32 22 57 36
25 14 40 26 34 26 -5 0 -31 -13 -57 -30z"/>
<path d="M733 993 c9 -2 25 -2 35 0 9 3 1 5 -18 5 -19 0 -27 -2 -17 -5z"/>
<path d="M678 983 c7 -3 16 -2 19 1 4 3 -2 6 -13 5 -11 0 -14 -3 -6 -6z"/>
<path d="M564 926 c-31 -31 -34 -39 -33 -87 l2 -54 6 59 c6 51 11 62 41 87 19
16 31 29 26 29 -4 0 -23 -15 -42 -34z"/>
<path d="M728 953 c6 -2 18 -2 25 0 6 3 1 5 -13 5 -14 0 -19 -2 -12 -5z"/>
<path d="M513 925 c-3 -9 -3 -18 -1 -21 3 -3 8 4 11 16 6 23 -1 27 -10 5z"/>
<path d="M579 893 l-24 -28 28 24 c15 14 27 26 27 28 0 8 -8 1 -31 -24z"/>
<path d="M723 913 c9 -2 23 -2 30 0 6 3 -1 5 -18 5 -16 0 -22 -2 -12 -5z"/>
<path d="M481 894 c0 -11 3 -14 6 -6 3 7 2 16 -1 19 -3 4 -6 -2 -5 -13z"/>
<path d="M783 899 c9 -5 17 -17 17 -25 0 -9 -5 -12 -12 -8 -7 4 -8 3 -4 -4 8
-13 -21 -75 -32 -68 -17 10 -10 -53 8 -69 11 -10 21 -28 21 -39 1 -18 2 -19 6
-3 3 11 -5 29 -17 42 -15 16 -20 30 -15 45 5 17 9 19 21 9 12 -10 13 -9 8 6
-5 12 -4 16 3 12 7 -5 9 1 5 15 -3 14 -2 19 6 14 7 -4 12 -1 12 9 0 12 8 7 26
-14 14 -17 40 -40 57 -52 19 -13 12 -4 -15 20 -26 23 -50 52 -54 64 -8 27 -33
57 -48 57 -6 0 -3 -5 7 -11z"/>
<path d="M703 873 c15 -2 37 -2 50 0 12 2 0 4 -28 4 -27 0 -38 -2 -22 -4z"/>
<path d="M628 848 c-13 -13 -17 -18 -8 -12 8 6 24 16 35 22 11 6 15 12 8 12
-7 0 -22 -10 -35 -22z"/>
<path d="M898 803 c34 -33 62 -66 62 -73 0 -7 2 -11 5 -8 12 11 -9 39 -68 88
l-62 52 63 -59z"/>
<path d="M497 788 l5 -68 -57 -74 c-41 -54 -55 -81 -52 -98 4 -21 4 -21 6 4 1
34 21 47 22 16 1 -20 2 -21 6 -3 7 27 44 78 51 70 3 -3 0 -11 -6 -17 -7 -7
-12 -17 -12 -23 0 -5 5 -3 10 5 5 8 15 15 22 15 7 0 12 7 10 16 -1 9 5 16 13
16 9 0 14 -6 11 -13 -7 -18 25 -10 36 9 5 10 13 15 18 12 5 -3 11 -1 15 5 4 6
10 8 15 5 5 -3 12 -1 15 5 4 6 1 9 -6 8 -6 -2 -14 3 -17 11 -3 8 0 11 6 7 13
-8 32 25 31 51 0 10 -5 2 -11 -17 -9 -30 -12 -32 -18 -16 -6 19 -7 19 -13 -3
-3 -13 -10 -20 -16 -16 -15 9 -14 -8 2 -25 10 -12 9 -12 -4 -2 -9 6 -19 9 -22
5 -4 -3 -7 -1 -7 5 0 6 5 14 10 17 6 3 9 21 9 38 l-2 32 -7 -35 c-4 -20 -8
-27 -9 -15 -2 19 -3 19 -11 -1 -5 -12 -13 -25 -19 -29 -14 -8 -14 1 0 23 8 13
8 37 1 82 -7 51 -10 58 -12 30 l-3 -35 -8 35 c-5 23 -6 12 -2 -32z m14 -82
c-6 -8 -8 -21 -5 -31 6 -16 9 -15 25 6 16 21 17 22 16 4 -1 -12 3 -19 11 -17
8 1 11 -1 8 -6 -3 -5 -18 -8 -33 -7 -15 1 -34 -2 -40 -8 -9 -6 -13 -5 -13 3 0
7 -13 -4 -30 -25 -16 -21 -30 -35 -30 -31 0 3 20 32 45 64 32 40 45 67 47 92
l1 35 4 -33 c3 -18 -1 -39 -6 -46z"/>
<path d="M551 829 c0 -15 -3 -42 -6 -60 l-5 -34 11 34 c5 18 8 45 6 60 l-4 26
-2 -26z"/>
<path d="M678 833 c7 -3 16 -2 19 1 4 3 -2 6 -13 5 -11 0 -14 -3 -6 -6z"/>
<path d="M572 800 c0 -19 2 -27 5 -17 2 9 2 25 0 35 -3 9 -5 1 -5 -18z"/>
<path d="M586 761 c-4 -29 -5 -55 -2 -58 6 -7 19 83 14 99 -3 7 -8 -11 -12
-41z"/>
<path d="M810 806 c0 -2 8 -10 18 -17 15 -13 16 -12 3 4 -13 16 -21 21 -21 13z"/>
<path d="M612 765 c0 -16 2 -22 5 -12 2 9 2 23 0 30 -3 6 -5 -1 -5 -18z"/>
<path d="M840 745 c13 -14 26 -25 28 -25 3 0 -5 11 -18 25 -13 14 -26 25 -28
25 -3 0 5 -11 18 -25z"/>
<path d="M860 766 c0 -2 8 -10 18 -17 15 -13 16 -12 3 4 -13 16 -21 21 -21 13z"/>
<path d="M698 753 c6 -2 18 -2 25 0 6 3 1 5 -13 5 -14 0 -19 -2 -12 -5z"/>
<path d="M760 756 c0 -2 8 -10 18 -17 15 -13 16 -12 3 4 -13 16 -21 21 -21 13z"/>
<path d="M817 740 c11 -14 23 -34 26 -45 5 -19 5 -19 6 1 0 11 -11 31 -26 45
l-28 24 22 -25z"/>
<path d="M1072 724 c-1 -17 -4 -47 -7 -65 l-5 -34 11 34 c5 18 8 47 6 65 l-4
31 -1 -31z"/>
<path d="M716 725 c-9 -26 -7 -32 5 -12 6 10 9 21 6 23 -2 3 -7 -2 -11 -11z"/>
<path d="M932 700 c0 -14 2 -19 5 -12 2 6 2 18 0 25 -3 6 -5 1 -5 -13z"/>
<path d="M812 690 c0 -14 2 -19 5 -12 2 6 2 18 0 25 -3 6 -5 1 -5 -13z"/>
<path d="M961 684 c0 -11 3 -14 6 -6 3 7 2 16 -1 19 -3 4 -6 -2 -5 -13z"/>
<path d="M991 684 c0 -11 3 -14 6 -6 3 7 2 16 -1 19 -3 4 -6 -2 -5 -13z"/>
<path d="M1031 684 c0 -11 3 -14 6 -6 3 7 2 16 -1 19 -3 4 -6 -2 -5 -13z"/>
<path d="M861 664 c0 -11 3 -14 6 -6 3 7 2 16 -1 19 -3 4 -6 -2 -5 -13z"/>
<path d="M640 661 c0 -6 4 -13 10 -16 6 -3 7 1 4 9 -7 18 -14 21 -14 7z"/>
<path d="M921 654 c0 -11 3 -14 6 -6 3 7 2 16 -1 19 -3 4 -6 -2 -5 -13z"/>
<path d="M832 635 c0 -16 2 -22 5 -12 2 9 2 23 0 30 -3 6 -5 -1 -5 -18z"/>
<path d="M982 630 c0 -19 2 -27 5 -17 2 9 2 25 0 35 -3 9 -5 1 -5 -18z"/>
<path d="M1022 635 c0 -16 2 -22 5 -12 2 9 2 23 0 30 -3 6 -5 -1 -5 -18z"/>
<path d="M953 585 c0 -38 2 -53 4 -32 2 20 2 52 0 70 -2 17 -4 1 -4 -38z"/>
<path d="M782 620 c0 -14 2 -19 5 -12 2 6 2 18 0 25 -3 6 -5 1 -5 -13z"/>
<path d="M580 616 c0 -2 8 -10 18 -17 15 -13 16 -12 3 4 -13 16 -21 21 -21 13z"/>
<path d="M700 610 c8 -5 16 -14 16 -20 1 -5 3 -12 4 -15 1 -3 3 -15 4 -27 1
-18 -6 -24 -29 -29 l-30 -6 32 -2 c17 0 35 -5 38 -11 4 -6 -7 -8 -27 -5 l-33
5 31 -10 c17 -5 39 -19 49 -30 20 -22 8 -28 -14 -7 -11 10 -13 10 -7 0 5 -8 1
-13 -11 -14 -14 0 -15 -2 -3 -6 8 -3 42 -29 75 -58 75 -65 105 -85 125 -84 8
0 5 4 -9 10 -32 13 -83 50 -77 56 2 3 15 -2 28 -11 12 -9 29 -16 38 -15 8 0 5
4 -9 10 -13 5 -37 19 -54 31 -17 12 -38 23 -45 24 -22 4 -24 11 -7 18 11 4 14
2 9 -6 -4 -7 -3 -8 5 -4 6 4 20 2 29 -5 13 -11 12 -8 -2 9 -11 12 -16 22 -11
22 4 0 2 7 -5 15 -10 12 -10 15 1 15 8 0 5 6 -7 15 -17 13 -17 14 -2 15 9 0
19 4 22 8 2 4 -8 7 -22 6 -23 -1 -56 26 -57 46 0 3 -4 11 -8 18 -5 6 -5 12 -1
12 4 0 -1 9 -11 20 -10 11 -23 20 -29 20 -6 0 -4 -5 4 -10z m55 -103 c0 -7 9
-11 18 -10 10 0 16 -2 13 -5 -3 -3 -1 -11 5 -19 9 -10 8 -13 -2 -13 -8 0 -5
-6 7 -15 17 -13 15 -15 -11 -15 -3 0 -4 2 -2 4 1 3 -9 16 -22 30 -14 14 -21
26 -17 26 4 0 4 6 -1 13 -4 6 -8 18 -10 26 -1 10 1 11 10 2 7 -7 12 -17 12
-24z m6 -84 c13 -16 12 -17 -3 -4 -10 7 -18 15 -18 17 0 8 8 3 21 -13z m60
-50 c13 -16 12 -17 -3 -4 -10 7 -18 15 -18 17 0 8 8 3 21 -13z"/>
<path d="M750 486 c0 -2 8 -10 18 -17 15 -13 16 -12 3 4 -13 16 -21 21 -21 13z"/>
<path d="M1053 550 c0 -41 2 -58 4 -37 2 20 2 54 0 75 -2 20 -4 3 -4 -38z"/>
<path d="M812 590 c0 -14 2 -19 5 -12 2 6 2 18 0 25 -3 6 -5 1 -5 -13z"/>
<path d="M862 580 c0 -14 2 -19 5 -12 2 6 2 18 0 25 -3 6 -5 1 -5 -13z"/>
<path d="M1012 570 c0 -19 2 -27 5 -17 2 9 2 25 0 35 -3 9 -5 1 -5 -18z"/>
<path d="M760 580 c-9 -6 -10 -10 -3 -10 6 0 15 5 18 10 8 12 4 12 -15 0z"/>
<path d="M842 570 c0 -14 2 -19 5 -12 2 6 2 18 0 25 -3 6 -5 1 -5 -13z"/>
<path d="M530 576 c0 -2 8 -10 18 -17 15 -13 16 -12 3 4 -13 16 -21 21 -21 13z"/>
<path d="M460 563 c0 -14 77 -83 93 -83 6 0 -2 9 -19 19 -17 10 -40 31 -52 46
-12 15 -22 23 -22 18z"/>
<path d="M688 563 c7 -3 16 -2 19 1 4 3 -2 6 -13 5 -11 0 -14 -3 -6 -6z"/>
<path d="M891 554 c0 -11 3 -14 6 -6 3 7 2 16 -1 19 -3 4 -6 -2 -5 -13z"/>
<path d="M922 545 c0 -16 2 -22 5 -12 2 9 2 23 0 30 -3 6 -5 -1 -5 -18z"/>
<path d="M623 553 c9 -2 25 -2 35 0 9 3 1 5 -18 5 -19 0 -27 -2 -17 -5z"/>
<path d="M800 551 c0 -8 -8 -11 -20 -8 -11 3 -18 1 -14 -4 3 -5 11 -9 19 -9
16 0 30 18 21 27 -3 4 -6 1 -6 -6z"/>
<path d="M983 525 c0 -22 2 -30 4 -17 2 12 2 30 0 40 -3 9 -5 -1 -4 -23z"/>
<path d="M665 540 c-13 -5 -14 -9 -5 -9 8 0 24 4 35 9 13 5 14 9 5 9 -8 0 -24
-4 -35 -9z"/>
<path d="M861 514 c0 -11 3 -14 6 -6 3 7 2 16 -1 19 -3 4 -6 -2 -5 -13z"/>
<path d="M455 501 c19 -22 66 -51 82 -51 4 1 -5 8 -22 17 -16 8 -41 25 -55 37
l-25 21 20 -24z"/>
<path d="M1022 490 c0 -19 2 -27 5 -17 2 9 2 25 0 35 -3 9 -5 1 -5 -18z"/>
<path d="M588 503 c7 -3 16 -2 19 1 4 3 -2 6 -13 5 -11 0 -14 -3 -6 -6z"/>
<path d="M638 503 c7 -3 16 -2 19 1 4 3 -2 6 -13 5 -11 0 -14 -3 -6 -6z"/>
<path d="M963 465 c0 -22 2 -30 4 -17 2 12 2 30 0 40 -3 9 -5 -1 -4 -23z"/>
<path d="M420 485 c0 -10 93 -65 109 -65 9 1 1 7 -17 15 -18 8 -47 24 -63 35
-16 12 -29 19 -29 15z"/>
<path d="M839 473 c-13 -16 -12 -17 4 -4 16 13 21 21 13 21 -2 0 -10 -8 -17
-17z"/>
<path d="M588 473 c12 -2 30 -2 40 0 9 3 -1 5 -23 4 -22 0 -30 -2 -17 -4z"/>
<path d="M993 440 c0 -25 2 -35 4 -22 2 12 2 32 0 45 -2 12 -4 2 -4 -23z"/>
<path d="M688 463 c6 -2 18 -2 25 0 6 3 1 5 -13 5 -14 0 -19 -2 -12 -5z"/>
<path d="M921 454 c0 -11 3 -14 6 -6 3 7 2 16 -1 19 -3 4 -6 -2 -5 -13z"/>
<path d="M595 450 l-50 -7 45 -1 c25 0 54 3 65 8 23 10 12 10 -60 0z"/>
<path d="M1062 435 c0 -16 2 -22 5 -12 2 9 2 23 0 30 -3 6 -5 -1 -5 -18z"/>
<path d="M1033 410 c0 -25 2 -35 4 -22 2 12 2 32 0 45 -2 12 -4 2 -4 -23z"/>
<path d="M668 433 c7 -3 16 -2 19 1 4 3 -2 6 -13 5 -11 0 -14 -3 -6 -6z"/>
<path d="M896 402 l-19 -27 24 22 c12 12 21 24 18 27 -2 2 -13 -8 -23 -22z"/>
<path d="M568 413 c12 -2 30 -2 40 0 9 3 -1 5 -23 4 -22 0 -30 -2 -17 -4z"/>
<path d="M938 380 c-9 -22 -15 -40 -13 -40 8 0 36 61 33 70 -2 5 -11 -9 -20
-30z"/>
<path d="M630 394 c-32 -13 -32 -14 -5 -8 17 4 48 10 70 14 l40 7 -35 1 c-19
0 -51 -6 -70 -14z"/>
<path d="M1072 375 c0 -16 2 -22 5 -12 2 9 2 23 0 30 -3 6 -5 -1 -5 -18z"/>
<path d="M957 327 l-17 -32 20 24 c17 20 26 41 18 41 -2 0 -11 -15 -21 -33z"/>
<path d="M1021 344 c0 -11 3 -14 6 -6 3 7 2 16 -1 19 -3 4 -6 -2 -5 -13z"/>
<path d="M3040 764 l0 -285 38 3 37 3 3 283 2 282 -40 0 -40 0 0 -286z"/>
<path d="M3162 768 l3 -283 38 -3 37 -3 0 285 0 286 -40 0 -40 0 2 -282z"/>
<path d="M1360 743 c0 -168 10 -203 69 -237 45 -26 116 -26 159 -1 58 35 72
81 72 243 l0 142 -40 0 -39 0 -3 -146 c-3 -146 -3 -147 -30 -167 -18 -13 -34
-18 -51 -13 -53 13 -57 26 -57 182 l0 144 -40 0 -40 0 0 -147z"/>
<path d="M1700 610 l0 -280 40 0 40 0 0 100 c0 55 2 100 4 100 3 0 22 -10 42
-22 51 -30 128 -29 178 2 114 70 134 219 42 315 -66 69 -144 81 -229 35 l-37
-20 0 25 c0 23 -4 25 -40 25 l-40 0 0 -280z m245 186 c62 -26 89 -98 60 -160
-34 -72 -130 -90 -184 -36 -60 60 -45 155 29 192 42 22 51 22 95 4z"/>
<path d="M2177 695 c54 -107 101 -195 106 -195 4 0 18 21 30 48 51 107 45 106
90 17 l40 -80 98 195 c54 107 98 198 98 203 1 4 -19 7 -44 7 l-45 0 -54 -107
-53 -108 -41 80 -40 80 -38 -78 c-21 -42 -41 -77 -44 -77 -3 1 -27 48 -54 105
l-50 105 -48 0 -48 0 97 -195z"/>
<path d="M2746 875 c-150 -53 -170 -273 -33 -359 52 -32 118 -38 195 -17 41
12 42 12 42 56 l0 44 -32 -13 c-61 -25 -114 -29 -153 -10 -30 14 -65 56 -65
79 0 3 65 5 145 5 l145 0 -1 43 c-2 139 -114 218 -243 172z m135 -84 c16 -16
29 -39 29 -51 0 -20 -4 -21 -102 -18 -117 3 -127 11 -75 63 47 47 104 49 148
6z"/>
</g>
</svg>
