<?xml version="1.0" standalone="no"?>
<!DOCTYPE svg PUBLIC "-//W3C//DTD SVG 20010904//EN"
 "http://www.w3.org/TR/2001/REC-SVG-20010904/DTD/svg10.dtd">
<svg version="1.0" xmlns="http://www.w3.org/2000/svg"
 width="258.000000pt" height="106.000000pt" viewBox="0 0 258.000000 106.000000"
 preserveAspectRatio="xMidYMid meet">

<g transform="translate(0.000000,106.000000) scale(0.100000,-0.100000)"
fill="#000000" stroke="none">
<path d="M310 574 c0 -9 -5 -12 -12 -8 -7 4 -8 3 -4 -4 4 -6 1 -22 -6 -34 -6
-13 -13 -32 -15 -43 -3 -19 -2 -19 11 -2 9 12 16 14 21 7 3 -5 12 -7 18 -3 12
8 17 9 37 12 6 0 9 5 8 10 -2 5 1 9 6 9 10 0 26 22 26 37 0 6 -4 4 -9 -4 -6
-9 -11 -10 -15 -2 -4 6 -4 16 -1 21 3 6 1 10 -5 10 -7 0 -10 -12 -8 -27 2 -18
-2 -27 -10 -25 -6 1 -12 -3 -12 -10 0 -6 -3 -8 -7 -5 -3 4 -12 2 -19 -4 -8 -7
-14 -7 -19 1 -4 6 -1 9 6 8 6 -2 14 3 17 11 3 9 0 11 -8 6 -7 -4 -5 5 4 24 9
17 12 31 6 31 -5 0 -10 -7 -10 -16z"/>
<path d="M330 569 c-12 -22 -8 -32 13 -35 9 -1 12 8 9 27 -5 35 -8 36 -22 8z"/>
</g>
</svg>
